# xmcd CD database file
#
# Track frame offsets:
#	150
#	10227
#	20297
#	33417
#	44900
#	53617
#	65845
#	77365
#	88787
#	97940
#	110767
#	124427
#	135802
#	149425
#	163055
#
# Disc length: 2351 seconds
#
# Revision: 3
# Processed by: cddbd v1.5.2PL0 Copyright (c) Steve Scherf et al.
# Submitted via: CDex 1.51
#
DISCID=c9092d0f
DTITLE=Various Artist - Classic Country - Golden '50s Time-Life D1
DYEAR=1998
DGENRE=Country
TTITLE0=Honky-Tonk Man - Johnny Horton
TTITLE1=Why, Baby, Why - George Jones
TTITLE2=Jamblaya (On The Bayou) - Hank Williams
TTITLE3=Gonna Find Me A Bluebird - Marvin Rainwater
TTITLE4=I Ain't Never - Webb Pierce
TTITLE5=Dark Moon - Bonnie Guitar
TTITLE6=Poor Little Fool - Ricky Nelson
TTITLE7=The Story Of My Life - Marty Robbins
TTITLE8=Wake Up Little Susie - Everly Brothers
TTITLE9=Don't - Elvis Presley
TTITLE10=Slow Poke - Pee Wee King
TTITLE11=Gotta Travel On - Billy Grammer
TTITLE12=I Forgot More Then You'll Ever Know - Davis Sisters
TTITLE13=City Lights - Ray Price
TTITLE14=I Don't Hurt Anymore - Hank Snow
EXTD=YEAR: 1998
EXTT0=
EXTT1=
EXTT2=
EXTT3=
EXTT4=
EXTT5=
EXTT6=
EXTT7=
EXTT8=
EXTT9=
EXTT10=
EXTT11=
EXTT12=
EXTT13=
EXTT14=
PLAYORDER=
